# xmcd
#
# Track frame offsets: 
#        150
#        18855
#        38107
#
# Disc length: 717 seconds
#
# Revision: 4
# Processed by: cddbd v1.5.1PL2 Copyright (c) Steve Scherf et al.
# Submitted via: ExactAudioCopy v0.95b4
#
DISCID=1702cb03
DTITLE=Killing Joke - Loose Cannon
DYEAR=2003
DGENRE=Rock
TTITLE0=Loose Cannon
TTITLE1=Loose Cannon (Full Version)
TTITLE2=Wardance (The Ultimate Version)
EXTD=YEAR: 2003
EXTT0=
EXTT1=
EXTT2=
PLAYORDER=
